Coordinates
version=1
nRows=6
nColumns=34
inDegrees=yes

Units are S.I. units (second, meters, Newtons, ...)
If the header above contains a line with 'inDegrees', this indicates whether rotational values are in degrees (yes) or radians (no).

endheader
time	pelvis_tilt	pelvis_list	pelvis_rotation	pelvis_tx	pelvis_ty	pelvis_tz	hip_flexion_r	hip_adduction_r	hip_rotation_r	knee_angle_r	ankle_angle_r	subtalar_angle_r	mtp_angle_r	hip_flexion_l	hip_adduction_l	hip_rotation_l	knee_angle_l	ankle_angle_l	subtalar_angle_l	mtp_angle_l	lumbar_extension	lumbar_bending	lumbar_rotation	arm_flex_r	arm_add_r	arm_rot_r	elbow_flex_r	pro_sup_r	arm_flex_l	arm_add_l	arm_rot_l	elbow_flex_l	pro_sup_l
      0.00000000	    -31.33515420	    -50.62230176	    -60.84534319	      0.09522147	      0.59980788	     -0.04844564	      6.22745885	     -2.88166964	    -24.17021091	     16.60464170	     17.83601750	    -16.72893836	      0.00000000	      4.96934101	      1.39522858	      4.22833241	      3.44959500	     33.67210016	      0.23287420	      0.00000000	     -4.97207295	      1.85845779	      0.66045557	      0.14062451	     -6.70619873	      0.27565260	     35.82137711	    114.99413409	      2.65856996	     -4.87575732	     15.76637396	     33.66711916	    107.42756148
      0.01666670	    -31.83965557	    -50.62469065	    -60.45397948	      0.09583282	      0.59886157	     -0.04866355	      6.20112932	     -2.87502009	    -25.38301997	     16.78380518	     18.29607761	    -15.42053687	      0.00000000	      5.24522278	      1.20276525	      6.16234976	      3.52416813	     33.54232193	     -0.83244856	      0.00000000	     -4.79800324	      2.15243187	     -0.40477439	      0.48486722	     -7.17795620	      3.02987004	     34.96430042	    114.88178014	      2.31134770	     -4.52981843	     14.27492914	     34.22574587	    108.67262922
      0.03333330	    -32.45289678	    -50.79046957	    -60.90648382	      0.09461412	      0.59904997	     -0.04842279	      6.20433404	     -2.31987738	    -25.33017396	     16.63021094	     18.17634352	    -15.35305213	      0.00000000	      5.07147055	      0.71624230	      6.40212752	      2.95020396	     33.36982080	     -1.17550194	      0.00000000	     -4.87141146	      2.47057868	     -0.12049991	      0.79197888	     -7.65392199	      5.58544822	     34.21596632	    115.11996486	      2.76350456	     -4.51361168	     14.68935349	     33.87589221	    109.44349861
      0.05000000	    -32.75798122	    -50.87595468	    -61.06374566	      0.09319363	      0.59939193	     -0.04792551	      6.15691395	     -2.06352734	    -24.68069613	     16.84596616	     18.23634815	    -14.88329013	      0.00000000	      5.10721932	      0.47966944	      6.69582869	      2.82330573	     33.62126864	     -1.51799628	      0.00000000	     -5.09572084	      2.47381346	      0.20506095	      0.91171072	     -7.55273691	      6.25023678	     33.20623075	    115.17620751	      3.18557686	     -4.36673305	     14.42844048	     34.01895771	    109.69248803
      0.06666670	    -32.96636423	    -50.96101478	    -61.02421914	      0.09200383	      0.60055337	     -0.04711059	      5.64690245	     -1.76332829	    -23.63555201	     16.48938281	     18.23013951	    -14.02804980	      0.00000000	      5.18087029	      0.29964882	      6.78923431	      2.86218083	     33.59677935	     -2.25194886	      0.00000000	     -5.13042237	      2.27192707	      0.16685183	      1.31308888	     -7.31137392	      7.88412234	     31.63837730	    115.40654044	      3.49448811	     -4.47706464	     14.56510677	     34.04827200	    110.20547827
      0.08333330	    -33.09354130	    -51.07938077	    -60.56927490	      0.09133644	      0.60115173	     -0.04692450	      5.10681615	     -1.60392382	    -22.15497258	     16.35584431	     18.36600860	    -13.09471520	      0.00000000	      5.08631014	      0.20217516	      7.26952496	      2.60088660	     33.53714215	     -2.78552158	      0.00000000	     -5.25657522	      2.08229867	     -0.17754947	      1.78676413	     -7.39659386	     10.18929177	     29.97569091	    115.74430002	      4.01017755	     -4.59686134	     14.99594233	     33.52406979	    110.99883273
